<?xml version="1.0" encoding="UTF-8" standalone="no"?>
<!-- Created with Inkscape (http://www.inkscape.org/) -->

<svg
   width="91.583862mm"
   height="81.516151mm"
   viewBox="0 0 91.583862 81.516151"
   version="1.1"
   id="svg1"
   xml:space="preserve"
   xmlns="http://www.w3.org/2000/svg"
   xmlns:svg="http://www.w3.org/2000/svg"><defs
     id="defs1" /><g
     id="layer1"
     transform="translate(-56.888616,-55.68891)"><path
       style="fill:#5dcaa5;fill-opacity:1;stroke-width:0.7937"
       d="m 139.94265,137.09142 c -0.0276,-0.0447 -0.40938,-0.0812 -0.84836,-0.0812 -0.43899,0 -0.82464,-0.0429 -0.85701,-0.0952 -0.0324,-0.0524 -0.3966,-0.0952 -0.80939,-0.0952 -0.4128,0 -0.77703,-0.0429 -0.80939,-0.0952 -0.0324,-0.0524 -0.41803,-0.0952 -0.85701,-0.0952 -0.43899,0 -0.82464,-0.0429 -0.857,-0.0952 -0.0324,-0.0524 -0.41802,-0.0952 -0.85701,-0.0952 -0.43899,0 -0.82464,-0.0429 -0.857,-0.0952 -0.0324,-0.0524 -0.41198,-0.0952 -0.84358,-0.0952 -0.43161,0 -0.82544,-0.0405 -0.8752,-0.0899 -0.0498,-0.0495 -0.44397,-0.0984 -0.87604,-0.10863 -0.43208,-0.0102 -0.78559,-0.0555 -0.78559,-0.1005 0,-0.045 -0.3617,-0.0818 -0.80377,-0.0818 -0.44208,0 -0.83026,-0.0429 -0.86263,-0.0952 -0.0324,-0.0524 -0.41802,-0.0952 -0.857,-0.0952 -0.43898,0 -0.82464,-0.0429 -0.85701,-0.0952 -0.0324,-0.0524 -0.39912,-0.0952 -0.81501,-0.0952 -0.44062,0 -0.75616,-0.0398 -0.75616,-0.0952 0,-0.056 -0.33141,-0.0952 -0.80378,-0.0952 -0.44207,0 -0.83025,-0.0429 -0.86262,-0.0952 -0.0324,-0.0524 -0.23844,-0.0966 -0.45793,-0.0982 -0.21949,-0.002 -0.48038,-0.0645 -0.57974,-0.13978 -0.0994,-0.0753 -0.21236,-0.11718 -0.25108,-0.0933 -0.0387,0.0239 -0.12336,-0.0203 -0.18808,-0.0983 -0.0647,-0.078 -0.15806,-0.14179 -0.20743,-0.14179 -0.15129,0 -1.06561,-1.00358 -1.26765,-1.39142 -0.10474,-0.20107 -0.25471,-0.43753 -0.33327,-0.52546 -0.24804,-0.27764 -0.5185,-0.69456 -0.53836,-0.82992 -0.0106,-0.0717 -0.10796,-0.21319 -0.21651,-0.31432 -0.10855,-0.10113 -0.19736,-0.24782 -0.19736,-0.32599 0,-0.0782 -0.0643,-0.16677 -0.14283,-0.19691 -0.0786,-0.0302 -0.14284,-0.1114 -0.14284,-0.18055 0,-0.0691 -0.10712,-0.21 -0.23806,-0.31299 -0.13093,-0.10299 -0.23806,-0.2672 -0.23806,-0.3649 0,-0.0977 -0.0857,-0.23116 -0.19044,-0.29658 -0.10475,-0.0654 -0.19044,-0.18284 -0.19044,-0.26096 0,-0.0781 -0.0857,-0.22773 -0.19045,-0.33247 -0.10475,-0.10475 -0.19044,-0.25472 -0.19044,-0.33328 0,-0.0786 -0.0361,-0.14283 -0.0802,-0.14283 -0.0441,0 -0.16099,-0.14998 -0.2597,-0.33328 -0.0987,-0.18331 -0.2126,-0.33329 -0.25306,-0.33329 -0.0405,0 -0.0736,-0.0568 -0.0736,-0.12623 0,-0.0694 -0.10712,-0.22688 -0.23805,-0.34988 -0.13093,-0.123 -0.23805,-0.28712 -0.23805,-0.36469 0,-0.0776 -0.10713,-0.2815 -0.23807,-0.45317 -0.13093,-0.17166 -0.23805,-0.35034 -0.23805,-0.39708 0,-0.0468 -0.10713,-0.18562 -0.23806,-0.30862 -0.13093,-0.12301 -0.23806,-0.30187 -0.23806,-0.39749 0,-0.0956 -0.045,-0.17384 -0.10008,-0.17384 -0.0551,0 -0.16274,-0.14998 -0.23933,-0.33329 -0.0766,-0.1833 -0.18611,-0.33328 -0.24339,-0.33328 -0.0573,0 -0.0821,-0.0573 -0.0552,-0.12742 0.0269,-0.0701 -0.0756,-0.23031 -0.22787,-0.35604 -0.15222,-0.12574 -0.27676,-0.30407 -0.27676,-0.3963 0,-0.0922 -0.045,-0.16769 -0.10009,-0.16769 -0.0551,0 -0.16275,-0.14997 -0.23933,-0.33328 -0.0766,-0.1833 -0.17137,-0.33327 -0.21062,-0.33327 -0.0714,0 -0.16375,-0.15322 -0.44753,-0.74213 -0.0831,-0.17249 -0.21405,-0.33776 -0.29095,-0.36727 -0.0769,-0.0295 -0.13982,-0.13264 -0.13982,-0.22918 0,-0.0965 -0.0598,-0.2098 -0.13292,-0.25167 -0.0731,-0.0419 -0.23212,-0.2673 -0.35336,-0.50093 -0.12125,-0.23363 -0.29711,-0.50144 -0.39081,-0.59514 -0.0937,-0.0937 -0.17037,-0.23464 -0.17037,-0.3132 0,-0.0786 -0.0423,-0.14284 -0.0939,-0.14284 -0.0517,0 -0.15661,-0.14997 -0.2332,-0.33328 -0.0766,-0.1833 -0.17964,-0.33327 -0.22901,-0.33327 -0.0494,0 -0.11664,-0.10713 -0.14951,-0.23806 -0.0329,-0.13094 -0.10121,-0.23806 -0.15188,-0.23806 -0.0506,0 -0.15508,-0.15067 -0.23203,-0.33482 -0.10472,-0.25063 -0.21327,-0.34949 -0.43175,-0.39319 -0.16053,-0.0321 -0.31494,-0.0957 -0.34312,-0.14129 -0.0282,-0.0456 -0.26044,-0.0829 -0.51613,-0.0829 -0.25568,0 -0.49135,-0.0429 -0.52372,-0.0952 -0.0324,-0.0524 -0.292,-0.0952 -0.57697,-0.0952 -0.28495,0 -0.5181,-0.0429 -0.5181,-0.0952 0,-0.0524 -0.21173,-0.0952 -0.4705,-0.0952 -0.25877,0 -0.49697,-0.0428 -0.52934,-0.0952 -0.0324,-0.0524 -0.292,-0.0952 -0.57696,-0.0952 -0.28495,0 -0.5181,-0.0429 -0.5181,-0.0952 0,-0.0524 -0.21173,-0.0952 -0.4705,-0.0952 -0.25877,0 -0.49697,-0.0429 -0.52934,-0.0952 -0.0324,-0.0524 -0.292,-0.0952 -0.57696,-0.0952 -0.28496,0 -0.5181,-0.0429 -0.5181,-0.0952 0,-0.0524 -0.21173,-0.0952 -0.4705,-0.0952 -0.25877,0 -0.49697,-0.0429 -0.52934,-0.0952 -0.0324,-0.0524 -0.24058,-0.0952 -0.46269,-0.0952 -0.22211,0 -0.44455,-0.0387 -0.4943,-0.086 -0.0865,-0.0822 -0.44205,-0.14194 -1.54261,-0.25924 -0.274953,-0.0293 -0.499923,-0.0922 -0.499923,-0.13969 0,-0.0475 -0.25709,-0.0864 -0.571334,-0.0864 -0.3174,0 -0.57133,-0.0423 -0.57133,-0.0952 0,-0.0524 -0.21172,-0.0952 -0.47049,-0.0952 -0.25877,0 -0.49698,-0.0429 -0.52934,-0.0952 -0.0324,-0.0524 -0.29201,-0.0952 -0.57696,-0.0952 -0.28496,0 -0.5181,-0.0429 -0.5181,-0.0952 0,-0.0524 -0.1903,-0.0952 -0.42289,-0.0952 -0.23258,0 -0.44937,-0.0429 -0.48173,-0.0952 -0.0324,-0.0524 -0.18488,-0.0952 -0.33891,-0.0952 -0.15402,0 -0.28004,-0.0429 -0.28004,-0.0952 0,-0.0524 -0.0557,-0.0952 -0.12385,-0.0952 -0.17518,0 -0.6363,-0.22395 -0.63719,-0.30947 -4.1e-4,-0.0393 -0.0757,-0.0724 -0.16738,-0.0735 -0.0917,-7.9e-4 -0.27377,-0.0859 -0.4047,-0.18832 -0.13093,-0.10242 -0.2922,-0.18717 -0.35838,-0.18833 -0.13864,-0.002 -0.47953,-0.18565 -0.66838,-0.3592 -0.0712,-0.0655 -0.19073,-0.11904 -0.26555,-0.11904 -0.0748,0 -0.13603,-0.0364 -0.13603,-0.0809 0,-0.0444 -0.19283,-0.16039 -0.4285,-0.25758 -0.23568,-0.0972 -0.4285,-0.21077 -0.4285,-0.2524 0,-0.0417 -0.0857,-0.0757 -0.19045,-0.0757 -0.10475,0 -0.19045,-0.0429 -0.19045,-0.0952 0,-0.0524 -0.0857,-0.0952 -0.190442,-0.0952 -0.104744,0 -0.190445,-0.0429 -0.190445,-0.0952 0,-0.0524 -0.05288,-0.0952 -0.117519,-0.0952 -0.112366,0 -1.116499,-0.47207 -1.215599,-0.57149 -0.02618,-0.0263 -0.165449,-0.10849 -0.309474,-0.18273 -0.144024,-0.0742 -0.261862,-0.16923 -0.261862,-0.21111 0,-0.0419 -0.06427,-0.0515 -0.142835,-0.0214 -0.07856,0.0302 -0.142834,0.007 -0.142834,-0.0506 0,-0.0579 -0.0857,-0.10541 -0.190445,-0.10541 -0.104745,0 -0.190446,-0.0327 -0.190446,-0.0728 0,-0.04 -0.160688,-0.14734 -0.357085,-0.2385 -0.196397,-0.0912 -0.421361,-0.20173 -0.499919,-0.24572 -0.07856,-0.044 -0.228535,-0.12293 -0.33328,-0.17543 -0.240636,-0.1206 -1.393901,-0.74211 -1.680812,-0.90581 -0.118954,-0.0679 -0.274558,-0.17697 -0.345791,-0.24243 -0.07123,-0.0655 -0.169007,-0.11903 -0.217279,-0.11903 -0.157524,0 -0.850857,-0.32868 -0.850857,-0.40335 0,-0.04 -0.06485,-0.0728 -0.144126,-0.0728 -0.132882,0 -0.505935,-0.17298 -0.617655,-0.28639 -0.02618,-0.0266 -0.347564,-0.19799 -0.714171,-0.3809 -0.366607,-0.1829 -0.680843,-0.36469 -0.6983,-0.40397 -0.01746,-0.0393 -0.113871,-0.0714 -0.214251,-0.0714 -0.10038,0 -0.18251,-0.0401 -0.18251,-0.0891 0,-0.049 -0.149976,-0.14329 -0.33328,-0.20957 -0.183304,-0.0663 -0.33328,-0.15475 -0.33328,-0.1966 0,-0.0418 -0.05573,-0.0761 -0.123849,-0.0761 -0.175184,0 -0.6363,-0.22396 -0.637189,-0.30948 -4.09e-4,-0.0393 -0.08644,-0.0714 -0.191189,-0.0714 -0.104745,0 -0.190445,-0.0429 -0.190445,-0.0952 0,-0.0524 -0.05573,-0.0952 -0.123851,-0.0952 -0.175183,0 -0.636299,-0.22396 -0.637188,-0.30947 -4.09e-4,-0.0393 -0.06952,-0.0714 -0.153573,-0.0714 -0.08406,0 -0.343307,-0.12856 -0.576111,-0.28567 -0.232803,-0.15712 -0.463982,-0.28567 -0.513728,-0.28567 -0.04975,0 -0.09045,-0.0429 -0.09045,-0.0952 0,-0.0524 -0.05573,-0.0952 -0.123849,-0.0952 -0.175183,0 -0.6363,-0.22396 -0.637189,-0.30947 -4.09e-4,-0.0393 -0.08287,-0.0714 -0.183254,-0.0714 -0.10038,0 -0.196793,-0.0322 -0.214251,-0.0714 -0.03601,-0.081 -1.154562,-0.63653 -1.211378,-0.6016 -0.02034,0.0125 -0.06318,-0.0131 -0.09522,-0.0568 -0.03204,-0.0437 -0.229657,-0.15888 -0.439147,-0.25583 -0.518783,-0.24009 -1.471546,-0.85335 -1.473977,-0.94874 -0.0011,-0.0426 -0.12585,-0.1818 -0.277251,-0.30919 -0.232886,-0.19596 -0.39838,-0.51487 -0.431132,-0.8308 -0.0043,-0.0412 -0.05061,-0.10547 -0.102986,-0.14284 -0.05238,-0.0374 -0.09892,-0.25843 -0.103426,-0.49124 -0.0045,-0.23282 -0.05808,-0.43993 -0.119029,-0.46025 -0.06746,-0.0225 -0.110825,-0.25516 -0.110825,-0.59472 0,-0.30678 -0.0448,-0.58547 -0.09955,-0.61931 -0.05476,-0.0338 -0.09237,-0.261333 -0.0836,-0.505543 0.0088,-0.24421 -0.03213,-0.56464 -0.09089,-0.71208 -0.05877,-0.14743 -0.106842,-0.43413 -0.106842,-0.63713 0,-0.20299 -0.04285,-0.39555 -0.09522,-0.42792 -0.05237,-0.0324 -0.09522,-0.26804 -0.09522,-0.52373 0,-0.25568 -0.03599,-0.48711 -0.07999,-0.51431 -0.044,-0.0271 -0.08797,-0.27508 -0.09774,-0.5509 -0.0098,-0.2758 -0.05947,-0.54318 -0.110459,-0.59418 -0.05099,-0.051 -0.09271,-0.34124 -0.09271,-0.645 0,-0.3047 -0.04269,-0.55228 -0.09522,-0.55228 -0.0528,0 -0.09522,-0.25206 -0.09522,-0.56572 0,-0.31115 -0.04285,-0.5922 -0.09522,-0.62457 -0.05238,-0.0324 -0.09522,-0.292 -0.09522,-0.57696 0,-0.28495 -0.04285,-0.5181 -0.09522,-0.5181 -0.0528,0 -0.09522,-0.25206 -0.09522,-0.56572 0,-0.313252 -0.04738,-0.595002 -0.106148,-0.631322 -0.06517,-0.0403 -0.08895,-0.24461 -0.0616,-0.52929 0.03069,-0.31942 0.0044,-0.49696 -0.0843,-0.57062 -0.07908,-0.0656 -0.128851,-0.30471 -0.128851,-0.619 0,-0.28164 -0.04285,-0.51207 -0.09522,-0.51207 -0.0529,0 -0.09522,-0.25393 -0.09522,-0.57134 0,-0.31741 -0.04232,-0.57133 -0.09522,-0.57133 -0.0529,0 -0.09522,-0.25393 -0.09522,-0.57134 0,-0.31741 -0.04232,-0.57133 -0.09522,-0.57133 -0.0529,0 -0.09522,-0.25393 -0.09522,-0.57134 0,-0.31741 -0.04232,-0.57134 -0.09522,-0.57134 -0.0528,0 -0.09522,-0.25205 -0.09522,-0.56572 0,-0.31114 -0.04285,-0.5922 -0.09522,-0.62457 -0.05237,-0.0324 -0.09522,-0.29199 -0.09522,-0.57695 0,-0.28496 -0.04285,-0.51811 -0.09522,-0.51811 -0.0529,0 -0.09522,-0.25392 -0.09522,-0.57133 0,-0.31741 -0.04232,-0.57134 -0.09522,-0.57134 -0.05238,0 -0.09522,-0.1714 -0.09522,-0.38089 v -0.38089 h -0.375271 c -0.206399,0 -0.401754,-0.0429 -0.434122,-0.0952 -0.03237,-0.0524 -0.163448,-0.0952 -0.291288,-0.0952 -0.127841,0 -0.232437,-0.0429 -0.232437,-0.0952 0,-0.0524 -0.06023,-0.0952 -0.133836,-0.0952 -0.158594,0 -0.94725,-0.39706 -0.992966,-0.49992 -0.01746,-0.0393 -0.111342,-0.0714 -0.208632,-0.0714 -0.09729,0 -0.203373,-0.0429 -0.235741,-0.0952 -0.03237,-0.0524 -0.138452,-0.0952 -0.235742,-0.0952 -0.09729,0 -0.191173,-0.0396 -0.208631,-0.0881 -0.01745,-0.0484 -0.09602,-0.10201 -0.174575,-0.11902 -0.07856,-0.0171 -0.198826,-0.10594 -0.267262,-0.19759 -0.06843,-0.0917 -0.167173,-0.16664 -0.219416,-0.16664 -0.05224,0 -0.231926,-0.12835 -0.399297,-0.28523 -0.16737,-0.15688 -0.347159,-0.28597 -0.399532,-0.28689 -0.120183,-0.002 -2.809071,-2.71372 -2.809071,-2.83281 0,-0.0484 -0.171401,-0.26286 -0.380891,-0.47657 -0.20949,-0.21371 -0.380891,-0.45263 -0.380891,-0.53095 0,-0.0783 -0.03214,-0.15665 -0.07142,-0.17411 -0.110057,-0.0489 -0.690364,-0.8189 -0.690364,-0.91602 0,-0.0473 -0.0857,-0.16361 -0.190446,-0.2584 -0.104745,-0.0948 -0.190445,-0.24682 -0.190445,-0.33784 0,-0.091 -0.06699,-0.19121 -0.14887,-0.22264 -0.08188,-0.0314 -0.124334,-0.0968 -0.09435,-0.14534 0.02999,-0.0485 -0.02017,-0.16291 -0.111465,-0.2542 -0.09129,-0.0913 -0.170277,-0.21259 -0.175518,-0.26955 -0.01771,-0.19244 -0.272785,-0.72249 -0.347681,-0.72249 -0.04089,0 -0.07434,-0.0643 -0.07434,-0.14284 0,-0.0786 -0.03239,-0.14283 -0.07198,-0.14283 -0.03959,0 -0.128975,-0.13926 -0.198637,-0.30947 -0.15412,-0.37657 -0.48097,-1.10596 -0.596811,-1.33183 -0.211826,-0.41302 0.09991,-1.12069 0.763326,-1.73281 0.57913,-0.53436 0.59748,-0.55329 0.865882,-0.89329 0.130931,-0.16586 0.305687,-0.30195 0.388346,-0.30243 0.08266,-4.7e-4 0.596861,-0.47137 1.142673,-1.04645 0.545811,-0.57506 1.067371,-1.04642 1.159024,-1.04744 0.09165,-7.9e-4 0.166639,-0.0447 0.166639,-0.0971 0,-0.33161 1.429668,-0.0187 1.631247,0.35708 0.06322,0.11784 0.150553,0.21426 0.194076,0.21426 0.04352,0 0.07913,0.0832 0.07913,0.18482 0,0.10165 0.04285,0.21131 0.09522,0.24368 0.05237,0.0324 0.09522,0.22519 0.09522,0.4285 0,0.20331 0.04285,0.39614 0.09522,0.4285 0.05238,0.0324 0.09522,0.16345 0.09522,0.29129 0,0.12784 0.04285,0.23244 0.09522,0.23244 0.05237,0 0.09522,0.0791 0.09522,0.17582 0,0.22528 0.273201,0.7764 0.384877,0.7764 0.04689,0 0.0604,0.0648 0.03002,0.14397 -0.06983,0.18197 0.692007,1.85571 0.844657,1.85571 0.04046,0 0.07357,0.0643 0.07357,0.14284 0,0.0786 0.04285,0.14283 0.09522,0.14283 0.05238,0 0.09618,0.075 0.09734,0.16664 0.0012,0.0917 0.08591,0.27377 0.188328,0.4047 0.102416,0.13093 0.187163,0.28526 0.188328,0.34296 0.0012,0.0577 0.141278,0.25052 0.311363,0.4285 0.170086,0.17797 0.294236,0.33813 0.27589,0.3559 -0.01834,0.0178 0.05674,0.13593 0.166867,0.26259 0.110124,0.12665 0.200224,0.26479 0.200224,0.30696 0,0.0421 0.128551,0.19984 0.285669,0.35037 0.157118,0.15053 0.285668,0.32084 0.285668,0.37848 0,0.0576 0.214251,0.31582 0.476113,0.57375 0.261863,0.25792 0.476114,0.5075 0.476114,0.55462 0,0.0947 0.691443,0.83694 2.451985,2.63202 0.912957,0.93088 1.166479,1.24553 1.166479,1.44773 0,0.1421 0.04285,0.28484 0.09522,0.31721 0.05238,0.0324 0.09522,0.18234 0.09522,0.33328 0,0.15094 0.04285,0.30091 0.09522,0.33328 0.05237,0.0324 0.09522,0.18234 0.09522,0.33328 0,0.15093 0.04285,0.30091 0.09522,0.33328 0.05237,0.0324 0.09522,0.18487 0.09522,0.3389 0,0.15403 0.04285,0.28004 0.09522,0.28004 0.05237,0 0.09522,0.16888 0.09522,0.37528 0,0.20639 0.04285,0.40175 0.09522,0.43412 0.05238,0.0324 0.09522,0.16092 0.09522,0.28567 0,0.12475 0.04285,0.25329 0.09522,0.28567 0.05238,0.0324 0.09522,0.20377 0.09522,0.38089 0,0.17712 0.04285,0.34852 0.09522,0.38089 0.05237,0.0324 0.09522,0.16344 0.09522,0.29128 0,0.12785 0.04285,0.23244 0.09522,0.23244 0.05238,0 0.09522,0.16887 0.09522,0.37528 0,0.20639 0.04285,0.40175 0.09522,0.43412 0.05237,0.0324 0.09522,0.16091 0.09522,0.28567 0,0.12474 0.04285,0.25329 0.09522,0.28567 0.05237,0.0324 0.09522,0.20376 0.09522,0.38088 0,0.17713 0.04285,0.34853 0.09522,0.38089 0.05238,0.0324 0.09522,0.14261 0.09522,0.24497 0,0.10236 0.04065,0.26052 0.09034,0.35147 0.04969,0.0909 0.116513,0.36837 0.148499,0.61652 0.03199,0.24814 0.119881,0.5129 0.195324,0.58834 0.07544,0.0755 0.137171,0.28767 0.137171,0.47163 0,0.18396 0.04285,0.36094 0.09522,0.39331 0.05237,0.0324 0.09522,0.20377 0.09522,0.38089 0,0.17712 0.04285,0.34853 0.09522,0.38089 0.05237,0.0324 0.09522,0.16092 0.09522,0.28567 0,0.12475 0.04285,0.2533 0.09522,0.28567 0.05238,0.0324 0.09522,0.20377 0.09522,0.38089 0,0.17712 0.04285,0.34852 0.09522,0.38089 0.05238,0.0324 0.09522,0.16092 0.09522,0.28567 0,0.12475 0.04285,0.2533 0.09522,0.28567 0.05237,0.0324 0.09522,0.20629 0.09522,0.3865 0,0.180222 0.0335,0.327672 0.07446,0.327672 0.04095,0 0.08405,0.11594 0.09578,0.25766 0.01173,0.1417 0.06393,0.30025 0.115992,0.35232 0.05207,0.0521 0.09467,0.19831 0.09467,0.32498 0,0.22998 0.327655,1.34566 0.487087,1.65856 0.04634,0.091 0.08425,0.27053 0.08425,0.39908 0,0.12855 0.04285,0.26021 0.09522,0.29259 0.05237,0.0324 0.09522,0.18233 0.09522,0.33327 0,0.15094 0.04285,0.30092 0.09522,0.33328 0.05237,0.0324 0.09522,0.18235 0.09522,0.33328 0,0.15094 0.04285,0.30091 0.09522,0.33328 0.05237,0.0324 0.09522,0.19254 0.09522,0.35594 0,0.33063 0.190342,0.94353 0.322621,1.03884 0.04707,0.0339 0.06108,0.15536 0.03114,0.26988 -0.07378,0.28213 0.385091,0.76352 0.727809,0.76352 0.138355,0 0.251554,0.0429 0.251554,0.0952 0,0.0524 0.128551,0.0952 0.285668,0.0952 0.157118,0 0.285668,0.0429 0.285668,0.0952 0,0.0524 0.126022,0.0952 0.280049,0.0952 0.154026,0 0.306531,0.0429 0.338899,0.0952 0.03237,0.0524 0.160919,0.0952 0.285668,0.0952 0.124749,0 0.2533,0.0429 0.285668,0.0952 0.03237,0.0524 0.182344,0.0952 0.33328,0.0952 0.150936,0 0.300912,0.0429 0.33328,0.0952 0.03237,0.0524 0.176302,0.0952 0.319854,0.0952 0.143552,0 0.302629,0.0416 0.353502,0.0925 0.05088,0.0509 0.186891,0.1069 0.302259,0.1245 0.115369,0.0176 0.239432,0.0617 0.275696,0.0979 0.03626,0.0363 0.163391,0.066 0.282503,0.066 0.119112,0 0.24305,0.0429 0.275418,0.0952 0.03237,0.0524 0.184872,0.0952 0.338898,0.0952 0.154027,0 0.28005,0.0429 0.28005,0.0952 0,0.0524 0.149975,0.0952 0.333279,0.0952 0.183303,0 0.333279,0.0429 0.333279,0.0952 0,0.0524 0.104597,0.0952 0.232438,0.0952 0.127839,0 0.25892,0.0429 0.291288,0.0952 0.03237,0.0524 0.160918,0.0952 0.285667,0.0952 0.12475,0 0.253301,0.0429 0.285669,0.0952 0.03237,0.0524 0.184872,0.0952 0.338899,0.0952 0.154027,0 0.280049,0.0429 0.280049,0.0952 0,0.0524 0.126021,0.0952 0.280048,0.0952 0.154026,0 0.306531,0.0429 0.3389,0.0952 0.03237,0.0524 0.182343,0.0952 0.333279,0.0952 0.150936,0 0.300912,0.0429 0.333279,0.0952 0.03237,0.0524 0.160919,0.0952 0.285669,0.0952 0.124749,0 0.2533,0.0429 0.285668,0.0952 0.03237,0.0524 0.182344,0.0952 0.333279,0.0952 0.150936,0 0.300912,0.0429 0.33328,0.0952 0.03237,0.0524 0.158863,0.0952 0.2811,0.0952 0.122237,0 0.248048,0.0672 0.279579,0.1494 0.03707,0.0966 0.12196,0.12889 0.240231,0.0913 0.100596,-0.0319 0.210462,-0.0134 0.244146,0.041 0.03369,0.0545 0.187267,0.0991 0.341294,0.0991 0.154026,0 0.280048,0.0429 0.280048,0.0952 0,0.0524 0.126021,0.0952 0.280048,0.0952 0.154027,0 0.306531,0.0429 0.3389,0.0952 0.03237,0.0524 0.160919,0.0952 0.285664,0.0952 0.12475,0 0.2533,0.0429 0.28567,0.0952 0.0324,0.0524 0.16092,0.0952 0.28567,0.0952 0.12475,0 0.2533,0.0429 0.28567,0.0952 0.0324,0.0524 0.16092,0.0952 0.28567,0.0952 0.12474,0 0.2533,0.0429 0.28566,0.0952 0.0324,0.0524 0.16092,0.0952 0.28567,0.0952 0.12475,0 0.2533,0.0429 0.28567,0.0952 0.0324,0.0524 0.16092,0.0952 0.28567,0.0952 0.12475,0 0.2533,0.0429 0.28567,0.0952 0.0324,0.0524 0.16344,0.0952 0.29128,0.0952 0.12785,0 0.23244,0.0429 0.23244,0.0952 0,0.13576 0.79191,0.118 1.06165,-0.0238 0.53676,-0.28217 0.84281,-0.77492 0.84281,-1.35691 0,-0.63844 -0.49592,-1.38074 -0.92244,-1.38074 -0.12113,0 -0.22023,-0.0429 -0.22023,-0.0952 0,-0.0524 -0.10461,-0.0952 -0.23245,-0.0952 -0.12783,0 -0.25891,-0.0429 -0.29129,-0.0952 -0.0324,-0.0524 -0.17962,-0.0952 -0.32723,-0.0952 -0.14761,0 -0.31806,-0.0598 -0.37878,-0.133 -0.0607,-0.0732 -0.18967,-0.11227 -0.28657,-0.0869 -0.0969,0.0253 -0.20499,-5.1e-4 -0.24018,-0.0575 -0.0352,-0.0569 -0.16857,-0.10351 -0.29641,-0.10351 -0.12785,0 -0.23244,-0.0429 -0.23244,-0.0952 0,-0.0524 -0.0871,-0.0952 -0.19344,-0.0952 -0.10638,0 -0.21798,-0.064 -0.24798,-0.14215 -0.0369,-0.0962 -0.12823,-0.12367 -0.28268,-0.0849 -0.13792,0.0346 -0.22813,0.0156 -0.22813,-0.0483 0,-0.058 -0.1046,-0.10555 -0.23244,-0.10555 -0.12784,0 -0.25892,-0.0429 -0.29128,-0.0952 -0.0324,-0.0524 -0.156867,-0.0952 -0.276661,-0.0952 -0.40144,0 -0.792505,-0.27262 -0.947795,-0.66072 -0.08154,-0.20379 -0.192909,-0.39813 -0.247488,-0.43186 -0.05457,-0.0337 -0.09923,-0.14319 -0.09923,-0.24325 0,-0.10007 -0.0857,-0.33452 -0.190446,-0.52101 -0.104745,-0.18649 -0.190445,-0.40204 -0.190445,-0.47901 0,-0.077 -0.04285,-0.13994 -0.09522,-0.13994 -0.05237,0 -0.09522,-0.0602 -0.09522,-0.13383 0,-0.1586 -0.397057,-0.94725 -0.499919,-0.99297 -0.03928,-0.0175 -0.07142,-0.0839 -0.07142,-0.14766 0,-0.16896 -0.225949,-0.62838 -0.309474,-0.62925 -0.03928,-4e-4 -0.07142,-0.10786 -0.07142,-0.2388 0,-0.13093 -0.03239,-0.23805 -0.07198,-0.23805 -0.03959,0 -0.128095,-0.13927 -0.196682,-0.30948 -0.06859,-0.17021 -0.164748,-0.38388 -0.213691,-0.47482 -0.04894,-0.0909 -0.08899,-0.22663 -0.08899,-0.30154 0,-0.0749 -0.03491,-0.15047 -0.07758,-0.16793 -0.04267,-0.0175 -0.265417,-0.42811 -0.494994,-0.91255 -0.229578,-0.48445 -0.451768,-0.88081 -0.493756,-0.88081 -0.04199,0 -0.07635,-0.0832 -0.07635,-0.184832 0,-0.10165 -0.04285,-0.2113 -0.09522,-0.24367 -0.05237,-0.0324 -0.09522,-0.14203 -0.09522,-0.24368 0,-0.10165 -0.04285,-0.18482 -0.09522,-0.18482 -0.05237,0 -0.09522,-0.21173 -0.09522,-0.4705 0,-0.25877 -0.04285,-0.49698 -0.09522,-0.52934 -0.05238,-0.0324 -0.09522,-0.3777 -0.09522,-0.76741 0,-0.43784 -0.03876,-0.70855 -0.101441,-0.70855 -0.06484,0 -0.09372,-0.26445 -0.08004,-0.73291 0.01425,-0.48823 -0.01546,-0.74521 -0.089,-0.76972 -0.07133,-0.0237 -0.110406,-0.30362 -0.110406,-0.79065 0,-0.43908 -0.03976,-0.75385 -0.09522,-0.75385 -0.05554,0 -0.09522,-0.3174 -0.09522,-0.76177 0,-0.44438 -0.03968,-0.76179 -0.09522,-0.76179 -0.05549,0 -0.09522,-0.31553 -0.09522,-0.75616 0,-0.41589 -0.04285,-0.78265 -0.09522,-0.81502 -0.05237,-0.0324 -0.09522,-0.37769 -0.09522,-0.76739 0,-0.40889 -0.04027,-0.70855 -0.09522,-0.70855 -0.05495,0 -0.09522,-0.29967 -0.09522,-0.70856 0,-0.3897 -0.04285,-0.73503 -0.09522,-0.7674 -0.05238,-0.0324 -0.09522,-0.3966 -0.09522,-0.80939 0,-0.4128 -0.04285,-0.77703 -0.09522,-0.80939 -0.05237,-0.0324 -0.09522,-0.37518 -0.09522,-0.76179 0,-0.38661 -0.04285,-0.72941 -0.09522,-0.76177 -0.05237,-0.0324 -0.09522,-0.3777 -0.09522,-0.76741 0,-0.40888 -0.04027,-0.70855 -0.09522,-0.70855 -0.05484,0 -0.09522,-0.29662 -0.09522,-0.69941 0,-0.6885 -0.141478,-1.01459 -0.440184,-1.01459 -0.05055,0 -0.254329,-0.17141 -0.452841,-0.3809 -0.198512,-0.20949 -0.413187,-0.38089 -0.477055,-0.38089 -0.06387,0 -0.261487,-0.14998 -0.439152,-0.33328 -0.177665,-0.18331 -0.37049,-0.33328 -0.428502,-0.33328 -0.05801,0 -0.250838,-0.14997 -0.428503,-0.33327 -0.177665,-0.18331 -0.3702,-0.33329 -0.427855,-0.33329 -0.05766,0 -0.272198,-0.1714 -0.47676,-0.38089 -0.204679,-0.20989 -0.41893,-0.38129 -0.476231,-0.38129 -0.0573,0 -0.271552,-0.1714 -0.476114,-0.38089 -0.204561,-0.20949 -0.418812,-0.38089 -0.476113,-0.38089 -0.0573,0 -0.271553,-0.1714 -0.476114,-0.38089 -0.204562,-0.20949 -0.422056,-0.38089 -0.483321,-0.38089 -0.06127,0 -0.234683,-0.14368 -0.385372,-0.31931 -0.150689,-0.17561 -0.402632,-0.38547 -0.559872,-0.46636 -0.157242,-0.0809 -0.367422,-0.23715 -0.467067,-0.34726 -0.09965,-0.1101 -0.223955,-0.20019 -0.276243,-0.20019 -0.05229,0 -0.32276,-0.20354 -0.601048,-0.45231 -0.834933,-0.74637 -1.301915,-1.12002 -1.373466,-1.09896 -0.0372,0.011 -0.224606,-0.14973 -0.41645,-0.35708 -0.191844,-0.20735 -0.411468,-0.37699 -0.488052,-0.37699 -0.07658,0 -0.294094,-0.17141 -0.483356,-0.3809 -0.189261,-0.20949 -0.392689,-0.38102 -0.45206,-0.38118 -0.182605,-5e-4 -1.107787,-0.96438 -1.107787,-1.15413 0,-0.0983 -0.04285,-0.1787 -0.09522,-0.1787 -0.356034,0 0.01083,-1.9443 0.441248,-2.33855 0.176293,-0.16148 0.320534,-0.33604 0.320534,-0.3879 0,-0.0518 0.07628,-0.17739 0.169521,-0.27891 0.09324,-0.10153 0.296521,-0.356 0.451745,-0.56549 0.155223,-0.20949 0.33604,-0.41516 0.401815,-0.45703 0.06577,-0.0419 0.119591,-0.1357 0.119591,-0.20847 0,-0.0728 0.160689,-0.32261 0.357086,-0.5552 0.655087,-0.7758 0.905411,-1.10132 1.013259,-1.31765 0.05883,-0.11799 0.278052,-0.29659 0.487172,-0.39688 0.209119,-0.10028 0.454624,-0.22005 0.545566,-0.26615 0.689803,-0.34962 2.643722,0.45508 2.643722,1.0888 0,0.047 0.121523,0.24164 0.27005,0.43248 0.148527,0.19084 0.373491,0.53957 0.49992,0.77495 0.126427,0.23539 0.304857,0.51129 0.396509,0.6131 0.09165,0.10182 0.16664,0.21334 0.16664,0.24783 0,0.0345 0.0857,0.16151 0.190445,0.28228 0.104745,0.12077 0.190446,0.267 0.190446,0.32494 0,0.0579 0.0857,0.15888 0.190445,0.2243 0.104745,0.0654 0.190445,0.17629 0.190445,0.24638 0,0.0701 0.0857,0.22628 0.190446,0.34705 0.104745,0.12077 0.190445,0.2773 0.190445,0.34785 0,0.0706 0.04503,0.12827 0.100082,0.12827 0.05504,0 0.162746,0.14997 0.239334,0.33327 0.07659,0.18331 0.180712,0.33328 0.231385,0.33328 0.05067,0 0.118225,0.10398 0.15012,0.23105 0.03189,0.12708 0.139836,0.30512 0.239871,0.39565 0.100034,0.0905 0.181881,0.22011 0.181881,0.28795 0,0.0679 0.05753,0.15761 0.127845,0.19949 0.07031,0.0419 0.209237,0.2047 0.308715,0.36181 0.09948,0.15712 0.25571,0.36822 0.347179,0.4691 0.09147,0.10088 0.191113,0.26157 0.221428,0.35709 0.03031,0.0955 0.08534,0.17365 0.122268,0.17365 0.03693,0 0.14792,0.14998 0.246636,0.33329 0.09871,0.1833 0.215585,0.33328 0.25971,0.33328 0.04412,0 0.08023,0.0558 0.08023,0.12407 0,0.12909 0.502782,0.86517 0.760798,1.11382 0.08152,0.0786 0.202486,0.24996 0.268816,0.38089 0.323768,0.6391 0.928218,1.48713 1.109589,1.55673 0.08038,0.0309 0.146143,0.14214 0.146143,0.24732 0,0.10518 0.106758,0.26119 0.237239,0.34668 0.130482,0.0855 0.217664,0.18712 0.193738,0.22583 -0.02392,0.0387 0.04072,0.16079 0.143652,0.27127 0.102934,0.11049 0.187153,0.2419 0.187153,0.29202 0,0.0502 0.128551,0.21246 0.285668,0.36076 0.157117,0.14829 0.285668,0.34475 0.285668,0.43657 0,0.0918 0.04377,0.16695 0.09726,0.16695 0.05349,0 0.149036,0.11784 0.212313,0.26187 0.06327,0.14402 0.13926,0.28328 0.16885,0.30947 0.177536,0.1571 0.4738,0.81548 0.4738,1.05289 0,0.15413 0.03816,0.28023 0.08481,0.28023 0.04664,0 0.10786,0.13926 0.13604,0.30947 0.08136,0.49141 0.168426,0.86563 0.249246,1.07126 0.09517,0.24214 0.236786,0.72618 0.390013,1.33311 0.06611,0.26187 0.156732,0.51683 0.201384,0.56658 0.04465,0.0498 0.08119,0.20791 0.08119,0.35146 0,0.14356 0.04285,0.28749 0.09522,0.31986 0.05237,0.0324 0.09522,0.16092 0.09522,0.28566 0,0.12476 0.04285,0.2533 0.09522,0.28567 0.05238,0.0324 0.09522,0.17112 0.09522,0.30834 0,0.25498 0.147607,0.79849 0.297356,1.09491 0.04595,0.0909 0.08353,0.2491 0.08353,0.35146 0,0.10237 0.04285,0.2126 0.09522,0.24497 0.05237,0.0324 0.09522,0.20377 0.09522,0.38089 0,0.17712 0.04285,0.34852 0.09522,0.3809 0.05237,0.0324 0.09522,0.16091 0.09522,0.28566 0,0.12475 0.04285,0.2533 0.09522,0.28567 0.05238,0.0324 0.09522,0.18487 0.09522,0.3389 0,0.15402 0.04285,0.28005 0.09522,0.28005 0.05237,0 0.09522,0.14744 0.09522,0.32766 0,0.18021 0.04285,0.35414 0.09522,0.38651 0.05238,0.0324 0.09522,0.18234 0.09522,0.33328 0,0.15093 0.04285,0.30091 0.09522,0.33327 0.05237,0.0324 0.09522,0.16093 0.09522,0.28567 0,0.12476 0.0429,0.2533 0.0952,0.28567 0.0524,0.0324 0.0952,0.18235 0.0952,0.33328 0,0.15094 0.0429,0.30091 0.0952,0.33328 0.0524,0.0324 0.0952,0.18234 0.0952,0.33328 0,0.15094 0.0429,0.30092 0.0952,0.33328 0.0524,0.0324 0.0952,0.20377 0.0952,0.38089 0,0.17712 0.0429,0.34852 0.0952,0.38089 0.0524,0.0324 0.0952,0.16092 0.0952,0.28567 0,0.12475 0.0429,0.2533 0.0952,0.28567 0.0524,0.0324 0.0952,0.16092 0.0952,0.28567 0,0.12475 0.0429,0.2533 0.0952,0.28567 0.0524,0.0324 0.0952,0.18234 0.0952,0.33328 0,0.15093 0.0429,0.30091 0.0952,0.33327 0.0524,0.0324 0.0952,0.20378 0.0952,0.3809 0,0.17712 0.0429,0.34852 0.0952,0.38089 0.0524,0.0324 0.0952,0.13797 0.0952,0.23467 0,0.22332 0.37627,0.95495 0.59514,1.15722 0.0917,0.0847 0.16664,0.2454 0.16664,0.35709 0,0.1117 0.0429,0.20308 0.0952,0.20308 0.0524,0 0.0952,0.0622 0.0952,0.13811 0,0.076 0.0568,0.17236 0.12621,0.21425 0.0695,0.0419 0.1568,0.14042 0.19418,0.21898 0.17322,0.36399 0.79836,1.30709 0.91365,1.37835 0.0545,0.0336 0.0991,0.14134 0.0991,0.239252 0,0.0979 0.0616,0.23962 0.13687,0.3149 0.0753,0.0752 0.27466,0.39972 0.44305,0.72097 0.1684,0.32125 0.34963,0.5841 0.40273,0.5841 0.0531,0 0.0705,0.026 0.0387,0.0579 -0.0318,0.0318 0.0472,0.17108 0.17563,0.30948 0.1284,0.13839 0.26029,0.33733 0.29307,0.44207 0.0328,0.10475 0.18229,0.36957 0.33223,0.5885 0.14995,0.21892 0.27263,0.44388 0.27263,0.49991 0,0.056 0.0379,0.10188 0.0841,0.10188 0.0463,0 0.1079,0.075 0.13697,0.16664 0.0561,0.17691 0.3607,0.70564 0.45258,0.78558 0.0301,0.0262 0.15864,0.24044 0.28567,0.47611 0.12702,0.23569 0.25444,0.44994 0.28315,0.47612 0.15168,0.13834 0.47152,0.66567 0.47152,0.77738 0,0.071 0.0857,0.18255 0.19045,0.24797 0.10474,0.0654 0.19045,0.1776 0.19045,0.2493 0,0.0717 0.0651,0.18437 0.14459,0.25037 0.0795,0.066 0.21526,0.27479 0.30163,0.46397 0.0864,0.18919 0.22104,0.41925 0.29926,0.51126 0.16622,0.19552 0.30615,0.43308 0.602573,1.022993 0.11843,0.23568 0.26958,0.48406 0.33589,0.55197 0.0663,0.0679 0.19149,0.27293 0.27817,0.4556 0.0867,0.18267 0.23772,0.37501 0.33564,0.42742 0.0979,0.0524 0.17804,0.17422 0.17804,0.27071 0,0.0965 0.0638,0.22839 0.14178,0.29311 0.078,0.0647 0.12057,0.15201 0.0946,0.19397 -0.026,0.042 -0.009,0.0907 0.0386,0.10824 0.0928,0.0345 0.35201,0.45594 0.6836,1.11127 0.30838,0.60945 0.60938,0.87273 0.99777,0.87273 0.18092,0 0.32895,0.0429 0.32895,0.0952 0,0.0524 0.23315,0.0952 0.51811,0.0952 0.28495,0 0.54459,0.0429 0.57695,0.0952 0.0324,0.0524 0.27058,0.0952 0.52935,0.0952 0.25877,0 0.47049,0.0429 0.47049,0.0952 0,0.0528 0.25206,0.0952 0.56572,0.0952 0.31114,0 0.5922,0.0429 0.62456,0.0952 0.0324,0.0524 0.29201,0.0952 0.57696,0.0952 0.28496,0 0.5181,0.0429 0.5181,0.0952 0,0.0524 0.21173,0.0952 0.4705,0.0952 0.25877,0 0.49698,0.0429 0.52934,0.0952 0.0324,0.0524 0.29201,0.0952 0.57696,0.0952 0.28496,0 0.51811,0.0429 0.51811,0.0952 0,0.0524 0.21172,0.0952 0.47049,0.0952 0.25877,0 0.49698,0.0429 0.52934,0.0952 0.0324,0.0524 0.31343,0.0952 0.62457,0.0952 0.31367,0 0.56572,0.0425 0.56572,0.0952 0,0.0524 0.1903,0.0952 0.42289,0.0952 0.23258,0 0.44936,0.0429 0.48172,0.0952 0.0324,0.0524 0.29201,0.0952 0.57696,0.0952 0.28496,0 0.51811,0.0429 0.51811,0.0952 0,0.0524 0.21172,0.0952 0.47049,0.0952 0.25877,0 0.49698,0.0429 0.52934,0.0952 0.0324,0.0524 0.29201,0.0952 0.57696,0.0952 0.28496,0 0.51811,0.0429 0.51811,0.0952 0,0.19973 0.87096,0.11003 0.92464,-0.0952 0.0274,-0.10474 0.0876,-0.19045 0.13391,-0.19045 0.0463,0 0.0841,-0.0648 0.0841,-0.14413 0,-0.18374 0.19012,-0.52341 0.40469,-0.72302 0.0917,-0.0853 0.16663,-0.2182 0.16663,-0.29541 0,-0.19399 1.76,-1.86825 2.33142,-2.21785 0.25682,-0.15711 0.57647,-0.35752 0.71035,-0.44534 0.13388,-0.0878 0.31841,-0.16281 0.41006,-0.16664 0.0917,-0.004 0.16664,-0.0498 0.16664,-0.10219 0,-0.0524 0.12855,-0.0952 0.28567,-0.0952 0.15712,0 0.28567,-0.0429 0.28567,-0.0952 0,-0.0524 0.12855,-0.0952 0.28567,-0.0952 0.15711,0 0.28566,-0.0429 0.28566,-0.0952 0,-0.0524 0.17141,-0.0952 0.3809,-0.0952 0.20949,0 0.38089,-0.0429 0.38089,-0.0952 0,-0.0598 0.61707,-0.0952 1.66077,-0.0952 1.00447,0 1.68404,0.0376 1.71963,0.0952 0.0324,0.0524 0.22772,0.0952 0.43413,0.0952 0.2064,0 0.37527,0.0429 0.37527,0.0952 0,0.0524 0.0976,0.0952 0.21687,0.0952 0.29378,0 2.00048,0.89495 2.79559,1.46595 0.43191,0.31016 1.36778,1.24852 1.36778,1.37141 0,0.0576 0.10133,0.21406 0.22518,0.3477 l 0.22516,0.24296 h 1.41458 1.41458 l 0.45346,0.21425 c 0.24942,0.11784 0.45423,0.24818 0.45516,0.28965 7.9e-4,0.0414 0.0879,0.16797 0.19334,0.28111 l 0.19165,0.20572 -0.0188,3.78965 c -0.0103,2.08431 -0.044,3.78965 -0.0748,3.78965 -0.0308,0 -0.13731,0.15099 -0.23669,0.33553 -0.0995,0.18475 -0.28039,0.36056 -0.40255,0.39122 -0.12201,0.0306 -0.22184,0.0939 -0.22184,0.14058 0,0.0467 -0.68561,0.0849 -1.52356,0.0849 h -1.52357 v 0.14604 c 0,0.0803 -0.12855,0.27171 -0.28567,0.4253 -0.15712,0.1536 -0.2863,0.33427 -0.28708,0.40149 -0.002,0.17623 -1.37956,1.50297 -1.56051,1.50297 -0.0836,0 -0.15209,0.0356 -0.15209,0.0792 0,0.0969 -0.88975,0.6826 -1.03694,0.6826 -0.0582,0 -0.10573,0.0429 -0.10573,0.0952 0,0.0524 -0.0857,0.0952 -0.19044,0.0952 -0.10474,0 -0.19045,0.0429 -0.19045,0.0952 0,0.0524 -0.10459,0.0952 -0.23243,0.0952 -0.12784,0 -0.25892,0.0429 -0.29129,0.0952 -0.0324,0.0524 -0.18488,0.0952 -0.3389,0.0952 -0.15403,0 -0.28005,0.0429 -0.28005,0.0952 0,0.0524 -0.1046,0.0952 -0.23244,0.0952 -0.12784,0 -0.25892,0.0429 -0.29129,0.0952 -0.0324,0.0524 -0.35627,0.0952 -0.71979,0.0952 -0.37714,0 -0.66093,0.0409 -0.66093,0.0952 0,0.0528 -0.25206,0.0952 -0.56572,0.0952 -0.31115,0 -0.5922,-0.0429 -0.62457,-0.0952 -0.0324,-0.0524 -0.33485,-0.0952 -0.67218,-0.0952 -0.3454,0 -0.61333,-0.0416 -0.61333,-0.0952 0,-0.0524 -0.16283,-0.0952 -0.36184,-0.0952 -0.19902,0 -0.40256,-0.0354 -0.45231,-0.0787 -0.52096,-0.45302 -1.216,-0.31525 -1.00406,0.19902 0.0699,0.16948 0.1752,0.44741 0.23412,0.61762 0.0589,0.17021 0.13949,0.30947 0.17905,0.30947 0.0395,0 0.0719,0.1046 0.0719,0.23244 0,0.12784 0.0429,0.25892 0.0952,0.29129 0.0524,0.0324 0.0952,0.16344 0.0952,0.29129 0,0.12784 0.0324,0.23244 0.0719,0.23244 0.0395,0 0.17064,0.26781 0.29132,0.59514 0.12069,0.32733 0.25974,0.66955 0.30899,0.76049 0.0493,0.0909 0.0896,0.2302 0.0896,0.30947 0,0.0793 0.0475,0.14413 0.10541,0.14413 0.0579,0 0.0842,0.0553 0.0582,0.12301 -0.0259,0.0677 0.0123,0.20441 0.085,0.30387 0.0727,0.0995 0.13224,0.27979 0.13224,0.40071 0,0.12092 0.0429,0.21986 0.0952,0.21986 0.0524,0 0.0952,0.0863 0.0952,0.19174 0,0.10545 0.0379,0.26614 0.0841,0.35708 0.0463,0.0909 0.13696,0.2939 0.20155,0.45101 0.0646,0.15713 0.1553,0.36008 0.20156,0.45102 0.0463,0.0909 0.0841,0.22215 0.0841,0.29159 0,0.0694 0.0857,0.30362 0.19045,0.52042 0.10475,0.2168 0.19044,0.4391 0.19044,0.494 0,0.0549 0.0429,0.0998 0.0952,0.0998 0.0524,0 0.0952,0.0784 0.0952,0.1743 0,0.66286 0.68373,1.34926 1.344,1.34926 0.20351,0 0.37001,0.0429 0.37001,0.0952 0,0.0524 0.21172,0.0952 0.47049,0.0952 0.25877,0 0.49698,0.0429 0.52935,0.0952 0.0324,0.0524 0.28741,0.0952 0.56677,0.0952 0.34883,0 0.52402,0.042 0.55935,0.13405 0.0376,0.098 0.16834,0.12186 0.4863,0.0887 0.27322,-0.0285 0.43487,-0.007 0.43487,0.0564 0,0.0584 0.20028,0.10172 0.47049,0.10172 0.25877,0 0.49698,0.0429 0.52935,0.0952 0.0324,0.0524 0.24662,0.0952 0.47611,0.0952 0.22949,0 0.44375,0.0429 0.47611,0.0952 0.0324,0.0524 0.24662,0.0952 0.47612,0.0952 0.22949,0 0.44374,0.0429 0.47611,0.0952 0.0324,0.0524 0.22519,0.0952 0.4285,0.0952 0.20331,0 0.39614,0.0429 0.4285,0.0952 0.0324,0.0524 0.26805,0.0952 0.52373,0.0952 0.25568,0 0.49135,0.0429 0.52373,0.0952 0.0324,0.0524 0.29199,0.0952 0.57695,0.0952 0.28496,0 0.51811,0.0429 0.51811,0.0952 0,0.0524 0.21425,0.0952 0.47611,0.0952 0.26186,0 0.47611,0.0429 0.47611,0.0952 0,0.0524 0.21425,0.0952 0.47612,0.0952 0.26186,0 0.47611,0.0429 0.47611,0.0952 0,0.0524 0.21173,0.0952 0.4705,0.0952 0.25877,0 0.49697,0.0429 0.52934,0.0952 0.0324,0.0524 0.24915,0.0952 0.48173,0.0952 0.23259,0 0.42289,0.0429 0.42289,0.0952 0,0.0524 0.21172,0.0952 0.47049,0.0952 0.25877,0 0.49697,0.0429 0.52934,0.0952 0.0324,0.0524 0.24663,0.0952 0.47612,0.0952 0.2295,0 0.44375,0.0429 0.47611,0.0952 0.0324,0.0524 0.18357,0.0952 0.336,0.0952 0.46544,0 1.39721,0.58457 1.61883,1.01561 0.0764,0.14845 0.20855,0.33443 0.29384,0.4133 0.14198,0.13131 0.18116,0.29578 0.32187,1.3511 0.0258,0.19351 0.004,0.37815 -0.0477,0.41032 -0.0521,0.0322 -0.0946,0.16055 -0.0946,0.2853 0,0.12475 -0.0429,0.2533 -0.0952,0.28567 -0.0524,0.0324 -0.0952,0.1261 -0.0952,0.20829 0,0.17677 -1.02542,1.17244 -1.20747,1.17244 -0.0691,0 -0.12565,0.0324 -0.12565,0.072 0,0.26001 -1.90433,0.445 -2.05593,0.19971 z m 4.76978,-11.2223 c -0.0324,-0.0524 -0.27057,-0.0952 -0.52934,-0.0952 -0.25878,0 -0.4705,-0.0429 -0.4705,-0.0952 0,-0.0524 -0.21172,-0.0952 -0.4705,-0.0952 -0.25877,0 -0.49697,-0.0429 -0.52934,-0.0952 -0.0324,-0.0524 -0.24915,-0.0952 -0.48174,-0.0952 -0.23258,0 -0.42287,-0.0429 -0.42287,-0.0952 0,-0.0524 -0.21425,-0.0952 -0.47612,-0.0952 -0.26187,0 -0.47612,-0.0429 -0.47612,-0.0952 0,-0.0524 -0.21172,-0.0952 -0.47049,-0.0952 -0.25877,0 -0.49697,-0.0429 -0.52935,-0.0952 -0.0324,-0.0524 -0.22519,-0.0952 -0.42849,-0.0952 -0.20332,0 -0.39614,-0.0429 -0.4285,-0.0952 -0.0324,-0.0524 -0.27058,-0.0952 -0.52935,-0.0952 -0.25877,0 -0.47049,-0.0429 -0.47049,-0.0952 0,-0.0524 -0.21426,-0.0952 -0.47612,-0.0952 -0.26186,0 -0.47611,-0.0429 -0.47611,-0.0952 0,-0.0524 -0.21425,-0.0952 -0.47612,-0.0952 -0.26186,0 -0.47611,-0.0429 -0.47611,-0.0952 0,-0.0524 -0.21172,-0.0952 -0.47049,-0.0952 -0.25877,0 -0.49698,-0.0429 -0.52935,-0.0952 -0.0324,-0.0524 -0.24915,-0.0952 -0.48173,-0.0952 -0.23259,0 -0.42288,-0.0429 -0.42288,-0.0952 0,-0.0524 -0.21172,-0.0952 -0.4705,-0.0952 -0.25877,0 -0.49698,-0.0429 -0.52934,-0.0952 -0.0324,-0.0524 -0.20688,-0.0952 -0.38781,-0.0952 -0.18092,0 -0.40335,-0.04 -0.4943,-0.0889 -0.26739,-0.14378 -1.02524,-0.29199 -1.49302,-0.29199 -0.23867,0 -0.43395,-0.0374 -0.43395,-0.083 0,-0.0457 -0.17998,-0.11184 -0.39996,-0.14701 -0.52096,-0.0833 -0.69083,-0.2163 -0.5088,-0.39835 0.16162,-0.1616 0.33743,-0.17389 0.33743,-0.0236 0,0.0604 0.0755,0.0283 0.16766,-0.0714 0.21385,-0.23114 0.54803,-0.41927 0.74477,-0.41927 0.15659,0 0.72839,-0.36131 0.7857,-0.49648 0.0175,-0.0412 0.0822,-0.0748 0.14382,-0.0748 0.0617,0 0.23914,-0.11785 0.39447,-0.26187 0.15532,-0.14402 0.31247,-0.26187 0.3492,-0.26187 0.12282,0 1.41374,-1.29148 1.41374,-1.41436 0,-0.0667 0.12702,-0.24287 0.28228,-0.39162 0.15525,-0.14875 0.26211,-0.30307 0.23746,-0.34297 -0.0247,-0.0398 -0.0124,-0.0869 0.0272,-0.10445 0.0396,-0.0175 0.15761,-0.20334 0.26223,-0.41283 0.10462,-0.20949 0.24082,-0.43445 0.30267,-0.49992 0.13385,-0.14168 0.85132,-0.15993 0.93545,-0.0238 0.0324,0.0524 0.22772,0.0952 0.43412,0.0952 0.20641,0 0.37527,0.0429 0.37527,0.0952 0,0.0524 0.21425,0.0952 0.47612,0.0952 0.26186,0 0.47611,0.0429 0.47611,0.0952 0,0.0524 0.17141,0.0952 0.3809,0.0952 0.20949,0 0.38088,0.0429 0.38088,0.0952 0,0.0524 0.1903,0.0952 0.42289,0.0952 0.23258,0 0.44936,0.0429 0.48173,0.0952 0.0324,0.0524 0.22519,0.0952 0.42851,0.0952 0.2033,0 0.39612,0.0429 0.42849,0.0952 0.0324,0.0524 0.24915,0.0952 0.48174,0.0952 0.23258,0 0.42288,0.0429 0.42288,0.0952 0,0.0524 0.1714,0.0952 0.38089,0.0952 0.20949,0 0.3809,0.0429 0.3809,0.0952 0,0.0524 0.21425,0.0952 0.47611,0.0952 0.26186,0 0.47611,0.0429 0.47611,0.0952 0,0.0524 0.16887,0.0952 0.37527,0.0952 0.2064,0 0.40176,0.0429 0.43412,0.0952 0.0324,0.0524 0.24915,0.0952 0.48174,0.0952 0.23259,0 0.42288,0.0429 0.42288,0.0952 0,0.0524 0.16887,0.0952 0.37527,0.0952 0.2064,0 0.40176,0.0429 0.43412,0.0952 0.0324,0.0524 0.20377,0.0952 0.38089,0.0952 0.17713,0 0.34853,0.0429 0.38089,0.0952 0.0324,0.0524 0.1582,0.0952 0.27963,0.0952 0.12143,0 0.27275,0.0626 0.33626,0.13914 0.0635,0.0765 0.20803,0.16721 0.32114,0.2015 0.53247,0.16144 0.87064,0.56078 1.20334,1.42098 0.0405,0.10475 0.12184,0.3103 0.18074,0.45678 0.15339,0.38155 0.13635,1.28917 -0.0273,1.4528 -0.0739,0.0739 -0.11174,0.22081 -0.0841,0.32648 0.0277,0.10597 0.004,0.19211 -0.0537,0.19211 -0.0571,0 -0.16916,0.12625 -0.24895,0.28055 -0.17303,0.3346 -0.61451,0.82285 -0.71807,0.79412 -0.0405,-0.0112 -0.18746,0.0852 -0.32671,0.21426 -0.13925,0.12905 -0.35811,0.23464 -0.48635,0.23464 -0.12823,0 -0.23315,0.0429 -0.23315,0.0952 0,0.0549 -0.29966,0.0952 -0.70855,0.0952 -0.3897,0 -0.73503,-0.0429 -0.76739,-0.0952 z M 127.71517,97.111864 c 0,-0.0524 -0.12855,-0.0952 -0.28567,-0.0952 -0.15711,0 -0.28567,-0.0429 -0.28567,-0.0952 0,-0.0524 -0.0763,-0.0952 -0.16942,-0.0952 -0.0932,0 -0.23119,-0.0857 -0.30669,-0.19045 -0.0755,-0.10474 -0.19415,-0.19044 -0.26368,-0.19044 -0.41922,0 -1.92645,-1.95166 -1.92645,-2.49449 0,-0.0945 -0.0429,-0.17175 -0.0952,-0.17175 -0.0524,0 -0.0952,-0.16887 -0.0952,-0.37527 0,-0.2064 -0.0429,-0.40175 -0.0952,-0.43413 -0.0524,-0.0324 -0.0952,-0.31089 -0.0952,-0.61894 0,-0.30805 0.0429,-0.58658 0.0952,-0.61895 0.0524,-0.0324 0.0952,-0.27057 0.0952,-0.529342 0,-0.25877 0.0429,-0.4705 0.0952,-0.4705 0.0524,0 0.0952,-0.0628 0.0952,-0.13945 0,-0.20145 0.45545,-1.00286 0.75954,-1.3365 0.1432,-0.15712 0.289,-0.36679 0.32399,-0.46593 0.035,-0.0991 0.0908,-0.1531 0.12403,-0.11988 0.0333,0.0332 0.24296,-0.0892 0.46609,-0.27204 0.22313,-0.18284 0.45205,-0.33244 0.5087,-0.33244 0.0567,0 0.10334,-0.0321 0.10375,-0.0714 7.9e-4,-0.0954 0.47084,-0.30947 0.67918,-0.30947 0.0912,0 0.19232,-0.0429 0.22468,-0.0952 0.0324,-0.0524 0.2063,-0.0952 0.38652,-0.0952 0.18021,0 0.32766,-0.0429 0.32766,-0.0952 0,-0.0528 0.25205,-0.0952 0.56571,-0.0952 0.31115,0 0.59221,0.0429 0.62457,0.0952 0.0324,0.0524 0.2283,0.0952 0.43542,0.0952 0.20711,0 0.46168,0.0429 0.56572,0.0952 0.10403,0.0524 0.27427,0.13807 0.3783,0.19044 0.10404,0.0524 0.23043,0.0952 0.2809,0.0952 0.21541,0 1.62484,1.10902 1.62484,1.27852 0,0.0344 0.0839,0.15266 0.18655,0.26278 0.24809,0.2663 0.76569,1.28597 0.76569,1.50842 0,0.0971 0.0429,0.20309 0.0952,0.23546 0.0544,0.0336 0.0952,0.522842 0.0952,1.142672 0,0.61983 -0.0408,1.10902 -0.0952,1.14267 -0.0524,0.0324 -0.0952,0.2063 -0.0952,0.38651 0,0.18022 -0.0429,0.32767 -0.0952,0.32767 -0.0524,0 -0.0952,0.0665 -0.0952,0.14789 0,0.27276 -0.86377,1.47463 -1.26724,1.76328 -0.21954,0.15706 -0.47464,0.34835 -0.56689,0.42508 -0.0922,0.0768 -0.23151,0.13953 -0.30947,0.13953 -0.0779,0 -0.14175,0.0429 -0.14175,0.0952 0,0.0524 -0.0857,0.0952 -0.19044,0.0952 -0.10474,0 -0.19045,0.0429 -0.19045,0.0952 0,0.0524 -0.14998,0.0952 -0.33328,0.0952 -0.1833,0 -0.33328,0.0429 -0.33328,0.0952 0,0.0588 -0.49198,0.0952 -1.2855,0.0952 -0.79353,0 -1.28551,-0.0364 -1.28551,-0.0952 z m 2.0949,-2.85669 c 0,-0.0524 0.0536,-0.0964 0.11903,-0.0978 0.1626,-0.003 0.65859,-0.44817 0.96311,-0.86343 0.31349,-0.42752 0.35801,-1.37019 0.0843,-1.78595 -0.0916,-0.13925 -0.21235,-0.335822 -0.26822,-0.436852 -0.0559,-0.10101 -0.18208,-0.22938 -0.28047,-0.28525 -0.0984,-0.0559 -0.26429,-0.17658 -0.36868,-0.26823 -0.63852,-0.56062 -2.31414,-0.009 -2.77408,0.912592 -0.16231,0.32534 -0.19991,1.77746 -0.046,1.77746 0.0524,0 0.0952,0.0686 0.0952,0.15235 0,0.19768 0.60219,0.79987 0.79987,0.79987 0.0838,0 0.15236,0.0429 0.15236,0.0952 0,0.0556 0.31741,0.0952 0.76178,0.0952 0.44437,0 0.76178,-0.0397 0.76178,-0.0952 z m 4.48112,-11.096812 c -1.4803,-0.81226 -1.70796,-2.29743 -0.5432,-3.54368 0.15908,-0.17021 0.36654,-0.30948 0.461,-0.30948 0.0945,0 0.17177,-0.0429 0.17177,-0.0952 0,-0.19063 1.30061,-0.11005 1.68731,0.10454 0.42756,0.23726 0.97893,0.79212 0.97893,0.98513 0,0.0753 0.0429,0.16347 0.0952,0.19583 0.0524,0.0324 0.0952,0.37771 0.0952,0.76741 0,0.40888 -0.0402,0.70855 -0.0952,0.70855 -0.0524,0 -0.0952,0.0787 -0.0952,0.17496 0,0.17488 -0.63167,0.81448 -1.02625,1.03913 -0.27252,0.15516 -1.43043,0.13696 -1.72956,-0.0271 z m -4.90963,-12.32798 c -0.0324,-0.0524 -0.1426,-0.0952 -0.24496,-0.0952 -0.23659,0 -0.53736,-0.1726 -0.82964,-0.47612 -0.12609,-0.13092 -0.25726,-0.22595 -0.2915,-0.21114 -0.11449,0.0495 -0.58596,-0.40366 -0.58596,-0.5632 0,-0.0866 -0.0643,-0.18217 -0.14283,-0.21231 -0.0835,-0.0321 -0.14284,-0.17473 -0.14284,-0.34348 0,-0.15875 -0.0429,-0.28865 -0.0952,-0.28865 -0.0556,0 -0.0952,-0.31741 -0.0952,-0.76178 0,-0.41898 0.036,-0.76178 0.08,-0.76178 0.044,0 0.13637,-0.17084 0.20528,-0.37966 0.0689,-0.20881 0.22711,-0.44638 0.35156,-0.52791 0.12443,-0.0815 0.20343,-0.18517 0.17553,-0.2303 -0.0531,-0.0859 0.83224,-0.76659 0.9971,-0.76659 0.0522,0 0.095,-0.0429 0.095,-0.0952 0,-0.0575 0.39969,-0.0952 1.00863,-0.0952 h 1.00862 l 0.24211,0.19044 c 0.13316,0.10475 0.2899,0.19181 0.3483,0.19346 0.29035,0.008 1.20125,1.15194 1.20125,1.50828 0,0.10532 0.0429,0.21796 0.0952,0.25033 0.15205,0.094 0.11472,1.35249 -0.0495,1.67013 -0.0796,0.15396 -0.14113,0.2911 -0.13669,0.30474 0.0633,0.19462 -0.72105,1.06398 -1.17532,1.3026 -0.14148,0.0743 -0.25723,0.17073 -0.25723,0.21425 0,0.0435 -0.19283,0.0791 -0.42851,0.0791 -0.23568,0 -0.4285,0.0429 -0.4285,0.0952 0,0.0524 -0.1903,0.0952 -0.42288,0.0952 -0.23259,0 -0.44937,-0.0429 -0.48174,-0.0952 z"
       id="path1" /></g></svg>
