<?xml version="1.0" encoding="UTF-8" standalone="no"?>
<!-- Created with Inkscape (http://www.inkscape.org/) -->

<svg
   width="103.00036mm"
   height="28.097544mm"
   viewBox="0 0 103.00036 28.097544"
   version="1.1"
   id="svg1"
   xml:space="preserve"
   inkscape:version="1.3.2 (091e20e, 2023-11-25, custom)"
   sodipodi:docname="logo_monet.svg"
   inkscape:export-filename="logo_monet.png"
   inkscape:export-xdpi="96"
   inkscape:export-ydpi="96"
   xmlns:inkscape="http://www.inkscape.org/namespaces/inkscape"
   xmlns:sodipodi="http://sodipodi.sourceforge.net/DTD/sodipodi-0.dtd"
   xmlns="http://www.w3.org/2000/svg"
   xmlns:svg="http://www.w3.org/2000/svg"><sodipodi:namedview
     id="namedview1"
     pagecolor="#ffffff"
     bordercolor="#cccccc"
     borderopacity="1"
     inkscape:showpageshadow="0"
     inkscape:pageopacity="1"
     inkscape:pagecheckerboard="0"
     inkscape:deskcolor="#d1d1d1"
     inkscape:document-units="mm"
     inkscape:zoom="1.0242632"
     inkscape:cx="388.08384"
     inkscape:cy="550.15155"
     inkscape:window-width="1920"
     inkscape:window-height="1009"
     inkscape:window-x="-8"
     inkscape:window-y="-8"
     inkscape:window-maximized="1"
     inkscape:current-layer="layer1"
     inkscape:export-bgcolor="#6c4fb70a" /><defs
     id="defs1" /><g
     inkscape:label="Camada 1"
     inkscape:groupmode="layer"
     id="layer1"
     transform="translate(-43.998719,-117.15603)"><g
       id="g1"><path
         style="fill:#6c4fb7;fill-opacity:1"
         d="m 48.996384,144.9083 c -4.375592,-1.6859 -5.020164,-3.34707 -4.997079,-12.87831 l 0.01762,-7.27604 c 0.118703,-4.6521 2.86982,-5.68214 11.929415,-5.68596 l 6.143827,-0.003 1.219944,-0.85989 c 5.045925,-3.5567 11.380372,2.65871 7.917088,7.7683 l -0.787186,1.16139 c 0.01785,1.6269 0.313309,2.57632 0.253939,4.92927 -0.167029,6.61968 0.317924,11.61047 -5.115825,13.18951 l -8.367281,-0.0175 c -4.996455,-0.0105 -7.670777,-0.11865 -8.214462,-0.32813 z m 17.607174,-16.5128 -1.050899,-0.14096 c -2.151407,-0.28856 -4.14477,-2.27716 -4.432431,-4.42184 l -0.146496,-1.09221 -5.538986,0.0807 -5.538986,0.0807 c 0,0 -2.025227,-0.17776 -2.07762,2.22847 -0.05047,2.31797 0.0017,6.95556 0.0017,6.95556 0.0025,9.96 -0.491049,9.73884 9.436811,9.74134 l 6.970676,-0.0437 c 3.020486,-0.0869 2.376231,-9.82356 2.376231,-13.38809 z m 1.94699,-2.42391 c 3.172326,-2.09147 1.815262,-6.90269 -1.94699,-6.90269 -3.705669,0 -5.098789,4.82935 -1.984376,6.87898 1.033487,0.68015 2.918446,0.69152 3.931366,0.0237 z m 32.316552,13.81568 c -3.151986,-0.70788 -4.906392,-2.54801 -5.30675,-5.56606 -1.064654,-8.02575 11.45725,-10.02959 13.10405,-2.097 0.94957,4.57404 -3.23592,8.68746 -7.7973,7.66306 z m 3.07301,-3.90782 c 0.60119,-0.24544 1.02803,-1.30808 1.02803,-2.55934 0,-3.03337 -4.7408,-3.72426 -5.545956,-0.80824 -0.810713,2.93616 1.448996,4.62051 4.517926,3.36758 z m 25.26218,3.55637 c -5.13554,-2.00543 -5.47329,-9.1455 -0.55394,-11.71022 2.4665,-1.28592 6.88925,-0.48077 8.07918,1.47079 1.96499,3.22272 -1.08484,6.3553 -5.76218,5.91853 l -1.76329,-0.16466 0.59273,0.59039 c 0.54702,0.54486 0.82661,0.58878 3.62575,0.56963 l 3.03302,-0.0207 v 1.64299 1.64299 l -1.1755,0.29599 c -1.80247,0.45387 -4.58651,0.34587 -6.07577,-0.23568 z m 3.94956,-7.50949 c 0.42788,-0.31287 0.45051,-0.43222 0.15047,-0.79375 -0.70592,-0.85058 -3.48168,-0.31818 -3.67884,0.70562 -0.11398,0.59183 2.74196,0.66317 3.52837,0.0881 z m 10.89988,7.75235 c -4.09852,-0.96509 -4.93869,-2.68195 -4.94653,-10.10817 l -0.006,-5.5022 1.78594,0.0782 1.78593,0.0782 0.1323,1.7198 0.13229,1.71979 1.66593,0.0791 1.66594,0.0791 -0.0784,1.6407 -0.0784,1.6407 -1.65365,0.0788 -1.65364,0.0788 v 1.72753 c 0,1.984 0.86338,3.23296 2.29475,3.31957 0.41137,0.0249 0.98608,0.0564 1.27712,0.0701 0.45676,0.0215 0.5402,0.2382 0.60976,1.58385 0.10643,2.05874 -0.34841,2.32483 -2.93346,1.71612 z m -67.735947,-0.14132 c -0.227773,-0.22778 -0.252925,-14.17204 -0.02663,-14.76177 0.240656,-0.62714 3.311715,-0.59175 3.862042,0.0445 0.220269,0.25466 1.318524,2.10013 2.440566,4.10104 1.122042,2.00091 2.142662,3.63802 2.268043,3.63802 0.125381,0 1.146001,-1.63711 2.268043,-3.63802 2.659807,-4.74317 2.482631,-4.56406 4.514799,-4.56406 2.11274,0 1.983355,-0.56136 1.890449,8.20208 l -0.07433,7.01146 h -1.852084 -1.852083 l -0.132292,-3.96829 -0.132291,-3.9683 -1.346864,2.24851 -1.346863,2.2485 h -1.936482 -1.936482 l -1.346863,-2.2485 -1.346863,-2.24851 -0.132292,3.9683 -0.132292,3.96829 -1.731004,0.077 c -0.952052,0.0423 -1.815255,-0.007 -1.918229,-0.11024 z m 41.121727,-12.28367 c 3.71875,-0.27692 5.87773,2.54695 6.01046,8.28203 l 0.0964,4.16719 h -1.86029 -1.86029 l -0.0857,-6.14482 c -0.0387,-2.77502 -3.98204,-4.13428 -5.2907,-0.26396 l 0.0457,6.40878 h -1.8401 -1.84009 c -0.27607,-4.6077 -2.02786,-12.76765 6.62465,-12.44922 z"
         id="path1"
         sodipodi:nodetypes="cscccsscscsccssscccsccccsssssssssscssccsscsccccsccccscccscccccccccccssssccscssssssccccccccccccccsscccccsscccccc" /></g></g></svg>
