<?xml version="1.0" encoding="UTF-8" standalone="no"?>
<!-- Created with Inkscape (http://www.inkscape.org/) -->

<svg
   width="48.570728mm"
   height="48.570728mm"
   viewBox="-2.088743 0 48.570728 48.570728"
   version="1.1"
   id="svg1"
   xml:space="preserve"
   inkscape:version="1.3.2 (091e20e, 2023-11-25, custom)"
   sodipodi:docname="logo_monet.svg"
   inkscape:export-filename="logo_monet.png"
   inkscape:export-xdpi="96"
   inkscape:export-ydpi="96"
   xmlns:inkscape="http://www.inkscape.org/namespaces/inkscape"
   xmlns:sodipodi="http://sodipodi.sourceforge.net/DTD/sodipodi-0.dtd"
   xmlns="http://www.w3.org/2000/svg"
   xmlns:svg="http://www.w3.org/2000/svg"><sodipodi:namedview
     id="namedview1"
     pagecolor="#ffffff"
     bordercolor="#cccccc"
     borderopacity="1"
     inkscape:showpageshadow="0"
     inkscape:pageopacity="1"
     inkscape:pagecheckerboard="0"
     inkscape:deskcolor="#d1d1d1"
     inkscape:document-units="mm"
     inkscape:zoom="1.0242632"
     inkscape:cx="388.08384"
     inkscape:cy="550.15155"
     inkscape:window-width="1920"
     inkscape:window-height="1009"
     inkscape:window-x="-8"
     inkscape:window-y="-8"
     inkscape:window-maximized="1"
     inkscape:current-layer="layer1"
     inkscape:export-bgcolor="#6c4fb70a" /><defs
     id="defs1" /><g
     inkscape:label="Camada 1"
     inkscape:groupmode="layer"
     id="layer1"
     transform="translate(-35.407792,-108.48893)"><g
       id="g1"
       inkscape:export-filename="logo_monet_vector.png"
       inkscape:export-xdpi="96"
       inkscape:export-ydpi="96"><path
         style="fill:#6c4fb7;fill-opacity:1"
         d="m 48.49236,146.4778 c -4.375592,-1.6859 -5.020164,-3.34707 -4.997079,-12.87831 l 0.01762,-7.27604 c 0.118703,-4.6521 2.86982,-5.68214 11.929415,-5.68596 l 6.143827,-0.003 1.219944,-0.85989 c 5.045925,-3.5567 11.380372,2.65871 7.917088,7.7683 l -0.787186,1.16139 c 0.01785,1.6269 0.313309,2.57632 0.253939,4.92927 -0.167029,6.61968 0.317924,11.61047 -5.115825,13.18951 l -8.367281,-0.0175 c -4.996455,-0.0105 -7.670777,-0.11865 -8.214462,-0.32813 z m 17.607174,-16.5128 -1.050899,-0.14096 c -2.151407,-0.28856 -4.14477,-2.27716 -4.432431,-4.42184 l -0.146496,-1.09221 -5.538986,0.0807 -5.538986,0.0807 c 0,0 -2.025227,-0.17776 -2.07762,2.22847 -0.05047,2.31797 0.0017,6.95556 0.0017,6.95556 0.0025,9.96 -0.491049,9.73884 9.436811,9.74134 l 6.970676,-0.0437 c 3.020486,-0.0869 2.376231,-9.82356 2.376231,-13.38809 z m 1.94699,-2.42391 c 3.172326,-2.09147 1.815262,-6.90269 -1.94699,-6.90269 -3.705669,0 -5.098789,4.82935 -1.984376,6.87898 1.033487,0.68015 2.918446,0.69152 3.931366,0.0237 z"
         id="path1"
         sodipodi:nodetypes="cscccsscscsccssscccsccccssssss"
         inkscape:export-filename=".\path1.png"
         inkscape:export-xdpi="96"
         inkscape:export-ydpi="96" /><rect
         style="fill:#b3b3b3;fill-opacity:0;stroke:#000000;stroke-width:0.965495;stroke-opacity:0"
         id="rect1"
         width="43.427746"
         height="47.605232"
         x="35.890537"
         y="-156.57692"
         transform="scale(1,-1)" /></g></g></svg>
